<?xml version="1.0" standalone="no"?>
<!DOCTYPE svg PUBLIC "-//W3C//DTD SVG 20010904//EN"
 "http://www.w3.org/TR/2001/REC-SVG-20010904/DTD/svg10.dtd">
<svg version="1.0" xmlns="http://www.w3.org/2000/svg"
 width="272.000000pt" height="149.000000pt" viewBox="0 0 272.000000 149.000000"
 preserveAspectRatio="xMidYMid meet">
<metadata>
Created by potrace 1.14, written by Peter Selinger 2001-2017
</metadata>
<g transform="translate(0.000000,149.000000) scale(0.100000,-0.100000)"
fill="#000000" stroke="none">
<path d="M1625 1483 c-324 -28 -562 -103 -771 -242 -251 -169 -366 -396 -310
-609 21 -76 89 -183 158 -247 65 -61 184 -134 259 -162 27 -9 49 -21 49 -27 0
-5 -14 -47 -31 -93 -18 -46 -30 -85 -28 -87 2 -2 37 -6 78 -8 l73 -5 14 33
c14 33 16 34 73 34 57 0 58 -1 67 -32 l10 -33 79 4 c44 2 81 4 83 6 1 1 -4 17
-12 36 -28 70 -29 79 -7 79 15 0 26 -11 36 -37 20 -50 67 -81 135 -89 106 -12
191 33 205 109 6 33 10 36 48 42 23 4 50 9 60 11 15 5 17 -3 17 -78 l0 -83 52
3 c103 5 98 0 98 106 l0 94 45 15 45 16 0 -32 c1 -41 30 -105 65 -139 33 -33
122 -68 174 -68 88 0 185 50 218 113 56 110 22 224 -86 284 l-46 26 65 66
c178 179 225 394 129 586 -37 72 -148 189 -235 246 -192 125 -509 188 -809
162z m270 -48 c50 -8 110 -20 135 -28 l45 -13 -70 0 c-168 -1 -295 -126 -265
-261 28 -121 92 -162 270 -175 38 -3 46 -7 48 -26 5 -33 -19 -36 -93 -11 -63
21 -68 21 -100 6 -67 -32 -80 -106 -29 -167 84 -100 325 -69 409 52 43 61 48
154 12 224 -41 80 -93 108 -222 120 -73 7 -104 22 -90 44 9 14 32 12 84 -6 78
-27 141 8 141 77 0 41 -35 93 -71 104 -11 4 -18 9 -15 12 9 9 141 -46 208 -86
193 -117 301 -279 301 -451 -1 -126 -48 -227 -166 -355 -43 -48 -65 -63 -103
-73 -62 -17 -125 -61 -152 -108 -8 -13 -85 -54 -102 -54 -5 0 -10 9 -10 20 0
17 7 20 40 20 l40 0 0 60 0 60 -150 0 -149 0 -11 -42 c-6 -24 -13 -51 -16 -60
-5 -16 2 -18 45 -18 l51 0 0 -45 c0 -50 -8 -56 -84 -70 l-36 -7 0 123 0 124
-75 -3 -75 -4 0 -134 0 -134 -25 0 -25 0 0 133 c0 74 -2 136 -4 138 -2 2 -36
3 -75 1 l-71 -4 0 -134 0 -135 -32 3 c-30 3 -32 6 -81 136 l-50 133 -90 -3
-90 -3 -35 -95 c-20 -52 -36 -96 -38 -98 -4 -7 -142 61 -199 98 -79 52 -218
195 -233 240 -9 28 -9 31 1 16 72 -113 192 -174 326 -163 91 7 152 36 221 106
46 47 62 72 80 126 83 251 -128 501 -384 454 -69 -12 -129 -40 -168 -77 -16
-14 -28 -20 -28 -14 0 21 163 176 235 224 166 109 363 180 575 207 110 14 348
12 445 -4z m-920 -585 c34 -32 48 -87 34 -131 -32 -95 -148 -115 -214 -38 -45
54 -26 149 37 186 35 20 113 11 143 -17z m-353 -68 c-4 -80 -2 -92 21 -137 80
-157 255 -207 401 -115 53 34 56 35 56 16 0 -15 -57 -55 -110 -76 -19 -8 -64
-14 -100 -14 -150 2 -280 113 -297 254 -8 66 5 160 21 160 11 0 12 -20 8 -88z
m1836 -502 c16 -15 22 -33 22 -61 0 -53 -34 -89 -85 -89 -50 0 -71 14 -85 55
-12 38 -7 70 18 98 22 25 101 23 130 -3z"/>
<path d="M1525 1263 c-11 -2 -71 -18 -133 -35 -121 -33 -162 -62 -162 -115 0
-28 79 -341 111 -440 24 -72 55 -103 106 -103 35 0 215 42 264 61 50 20 69 46
69 95 0 37 -6 51 -29 75 -34 34 -66 37 -151 14 -32 -8 -58 -11 -64 -5 -13 13
1 40 21 40 37 1 103 39 113 65 14 36 -13 93 -47 101 -23 6 -72 1 -120 -12 -18
-5 -23 -2 -23 13 0 16 13 24 68 38 77 21 122 60 122 106 0 78 -61 121 -145
102z"/>
<path d="M303 949 c-17 -5 -41 -22 -53 -37 -29 -36 -24 -92 24 -272 20 -74 33
-143 30 -152 -6 -21 -47 -24 -61 -5 -5 6 -15 30 -21 52 -21 73 -67 104 -135
91 -76 -14 -100 -83 -66 -191 51 -166 216 -238 369 -160 82 41 139 132 140
219 0 49 -66 320 -96 395 -21 53 -72 77 -131 60z"/>
</g>
</svg>
