<?xml version="1.0" standalone="no"?>
<!DOCTYPE svg PUBLIC "-//W3C//DTD SVG 20010904//EN"
 "http://www.w3.org/TR/2001/REC-SVG-20010904/DTD/svg10.dtd">
<svg version="1.0" xmlns="http://www.w3.org/2000/svg"
 width="297.000000pt" height="170.000000pt" viewBox="0 0 297.000000 170.000000"
 preserveAspectRatio="xMidYMid meet">
<metadata>
Created by potrace 1.15, written by Peter Selinger 2001-2017
</metadata>
<g transform="translate(0.000000,170.000000) scale(0.100000,-0.100000)"
fill="#000000" stroke="none">
<path d="M1296 1680 c-218 -27 -428 -103 -591 -213 -71 -48 -192 -163 -231
-218 l-27 -39 -223 0 -224 0 0 -360 0 -360 220 0 c213 0 221 -1 238 -21 99
-123 151 -172 257 -244 201 -135 423 -202 705 -212 265 -9 460 28 666 126 170
81 298 180 386 298 l39 53 224 0 225 0 0 360 0 360 -224 0 -225 0 -47 61
c-139 180 -403 331 -684 389 -118 24 -367 35 -484 20z m392 -35 c319 -48 602
-198 749 -397 l35 -48 207 0 c148 0 210 -3 219 -12 9 -9 12 -97 12 -335 0
-308 -1 -323 -19 -333 -12 -6 -99 -10 -215 -10 l-195 0 -31 -45 c-66 -97 -217
-222 -343 -286 -183 -93 -398 -142 -627 -142 -283 0 -530 71 -742 212 -77 52
-220 193 -240 236 l-11 25 -199 0 c-118 0 -207 4 -219 10 -18 10 -19 25 -19
335 0 310 1 325 19 335 12 6 101 10 219 10 l200 0 50 63 c189 240 548 394 930
396 67 1 166 -6 220 -14z"/>
<path d="M1340 1584 c-14 -2 -65 -11 -113 -20 -236 -41 -478 -165 -605 -310
l-44 -49 451 -3 c248 -1 655 -1 904 0 l452 3 -70 71 c-139 141 -323 235 -560
285 -87 19 -357 34 -415 23z"/>
<path d="M80 855 l0 -305 1400 -2 1400 -3 0 308 0 307 -1400 0 -1400 0 0 -305z
m271 59 l32 -85 27 68 c16 37 30 76 34 86 4 13 16 17 51 17 44 0 60 -12 30
-24 -22 -8 -22 -201 0 -210 34 -13 12 -26 -45 -26 -59 0 -83 16 -40 27 18 5
20 14 20 87 l-1 81 -34 -80 c-19 -44 -34 -86 -35 -92 0 -7 -6 -13 -14 -13 -8
0 -28 38 -49 93 l-36 92 0 -70 c-1 -75 4 -88 32 -98 32 -12 8 -27 -43 -27 -50
0 -78 17 -42 27 19 4 21 14 24 96 3 77 0 94 -14 106 -28 24 -22 31 26 31 l44
0 33 -86z m385 -20 c40 -108 64 -141 98 -128 13 5 16 23 16 104 0 90 -2 99
-20 105 -35 11 -11 25 45 25 56 0 80 -14 45 -25 -18 -6 -20 -15 -20 -105 0
-91 1 -98 21 -103 12 -3 18 -10 15 -16 -8 -13 -236 -14 -236 -1 0 5 7 13 16
18 13 7 13 13 3 35 -10 22 -19 27 -50 27 -33 0 -40 -4 -45 -26 -5 -19 -2 -29
10 -36 30 -17 16 -28 -34 -28 -36 0 -50 4 -50 14 0 7 8 16 18 18 10 3 26 30
41 69 44 118 63 159 76 159 7 0 30 -48 51 -106z m362 19 l62 -87 0 72 c0 62
-2 71 -20 77 -38 12 -20 25 35 25 57 0 70 -11 35 -30 -18 -10 -20 -21 -20
-120 0 -82 -3 -110 -12 -110 -7 1 -43 42 -80 92 l-68 92 0 -73 c0 -64 2 -73
20 -78 11 -3 20 -12 20 -19 0 -10 -15 -14 -55 -14 -57 0 -70 11 -35 30 18 9
20 21 20 95 0 73 -3 88 -20 102 -29 25 -25 33 18 33 36 0 41 -4 100 -87z m412
40 c0 -50 -16 -56 -32 -13 -6 18 -19 32 -33 36 -31 8 -45 -2 -45 -32 0 -20 11
-29 58 -52 54 -26 57 -29 60 -67 5 -64 -14 -80 -96 -82 l-70 -1 -6 41 c-9 57
8 69 34 23 24 -40 62 -55 86 -35 26 22 12 52 -36 76 -79 40 -97 78 -59 127 19
24 26 26 80 24 l59 -2 0 -43z m258 19 c2 -13 1 -31 -3 -40 -5 -13 -11 -10 -35
16 -16 18 -34 32 -39 32 -7 0 -11 -38 -11 -104 0 -97 1 -104 21 -109 40 -11 8
-27 -52 -27 -58 0 -81 16 -39 27 18 5 20 14 20 109 0 115 -10 130 -51 74 -27
-35 -39 -31 -39 16 l0 35 113 -3 c109 -3 112 -4 115 -26z m197 3 c14 -13 25
-29 25 -34 0 -25 -21 -60 -40 -66 -19 -6 -19 -8 12 -52 37 -51 69 -68 99 -53
17 9 19 22 19 100 0 79 -2 91 -20 102 -11 7 -20 16 -20 20 0 5 45 8 100 8
l100 0 0 -35 c0 -42 -5 -43 -36 -9 -17 17 -32 24 -51 22 -23 -3 -26 -7 -27
-46 -1 -38 1 -42 22 -42 16 0 26 7 29 20 10 37 28 14 31 -38 2 -40 0 -52 -11
-52 -8 0 -17 9 -20 20 -3 13 -14 20 -29 20 -21 0 -23 -3 -20 -46 l4 -45 42 3
c31 2 43 8 51 26 16 36 35 27 35 -18 l0 -40 -149 1 -149 0 -37 55 c-21 30 -41
54 -46 54 -16 0 -10 -77 6 -84 33 -12 12 -26 -39 -26 -56 0 -85 17 -47 27 20
5 21 12 21 103 0 90 -2 99 -20 105 -40 13 -7 25 66 25 66 0 78 -3 99 -25z
m525 -10 c0 -41 -10 -44 -44 -10 -14 14 -37 25 -51 25 -23 0 -25 -3 -25 -45 0
-41 2 -45 24 -45 16 0 27 7 31 20 12 38 25 20 25 -35 0 -54 -13 -73 -25 -36
-3 10 -17 21 -30 24 -24 4 -25 2 -25 -44 l0 -49 43 0 c36 0 46 4 57 25 15 28
46 36 36 9 -3 -9 -6 -27 -6 -40 0 -24 -1 -24 -105 -24 -87 0 -105 3 -105 15 0
8 7 15 15 15 12 0 15 18 15 99 0 79 -3 100 -15 105 -8 3 -15 10 -15 16 0 6 38
10 100 10 l100 0 0 -35z m258 7 c2 -13 1 -31 -3 -40 -5 -13 -11 -10 -35 16
-16 18 -34 32 -39 32 -7 0 -11 -38 -11 -104 0 -97 1 -104 21 -109 40 -11 8
-27 -52 -27 -58 0 -81 16 -39 27 18 5 20 14 20 109 0 115 -10 130 -51 74 -27
-35 -39 -31 -39 16 l0 35 113 -3 c109 -3 112 -4 115 -26z"/>
<path d="M588 483 c28 -40 129 -134 183 -170 126 -86 309 -158 478 -187 121
-20 340 -21 457 -1 177 31 346 95 468 176 62 42 189 160 207 192 9 16 -37 17
-901 17 l-911 0 19 -27z m1347 -43 c47 -44 45 -141 -3 -185 -21 -20 -37 -25
-75 -25 -42 0 -54 5 -83 34 -28 28 -34 41 -34 78 0 49 29 104 63 118 36 16
105 5 132 -20z m-732 -88 c24 -60 45 -102 53 -102 8 0 14 -4 14 -10 0 -5 -25
-10 -55 -10 -30 0 -55 5 -55 10 0 6 7 10 15 10 18 0 18 1 5 34 -17 47 -90 28
-90 -23 0 -6 7 -11 15 -11 8 0 15 -4 15 -10 0 -5 -22 -10 -50 -10 -49 0 -68
13 -32 22 12 3 30 39 56 107 28 75 43 101 54 99 10 -2 31 -43 55 -106z m165
94 c-15 -11 -18 -29 -18 -93 0 -87 8 -103 52 -103 38 0 48 24 48 114 0 60 -3
76 -14 76 -8 0 -18 5 -21 10 -4 7 50 10 154 10 l161 0 0 -30 c0 -35 -18 -39
-43 -10 -9 11 -24 20 -32 20 -12 0 -15 -17 -15 -91 0 -82 2 -91 20 -96 40 -11
18 -23 -40 -23 -33 0 -60 4 -60 10 0 6 7 10 15 10 11 0 15 12 15 49 0 26 3 69
6 95 6 42 5 46 -14 46 -12 0 -26 -9 -32 -20 -16 -29 -40 -25 -40 6 0 22 -2 25
-15 14 -11 -9 -15 -33 -15 -91 0 -99 -15 -119 -90 -119 -74 0 -90 22 -90 123
0 64 -3 82 -17 93 -16 12 -10 13 42 13 52 0 58 -1 43 -13z"/>
<path d="M1821 431 c-53 -53 -29 -181 34 -181 39 0 60 35 60 102 0 51 -4 63
-24 79 -29 24 -46 24 -70 0z"/>
</g>
</svg>
